<?xml version="1.0" encoding="UTF-8" standalone="no"?>
<!DOCTYPE svg PUBLIC "-//W3C//DTD SVG 1.1//EN"
 "http://www.w3.org/Graphics/SVG/1.1/DTD/svg11.dtd">
<!-- Generated by graphviz version 9.0.0 (20230911.1827)
 -->
<!-- Title: packages_nbiatoolkit Pages: 1 -->
<svg width="909pt" height="476pt"
 viewBox="0.00 0.00 908.75 476.00" xmlns="http://www.w3.org/2000/svg" xmlns:xlink="http://www.w3.org/1999/xlink">
<g id="graph0" class="graph" transform="scale(1 1) rotate(0) translate(4 472)">
<title>packages_nbiatoolkit</title>
<polygon fill="white" stroke="none" points="-4,4 -4,-472 904.75,-472 904.75,4 -4,4"/>
<!-- nbiatoolkit -->
<g id="node1" class="node">
<title>nbiatoolkit</title>
<polygon fill="#77aadd" stroke="#77aadd" points="448,-36 373.5,-36 373.5,0 448,0 448,-36"/>
<text text-anchor="middle" x="410.75" y="-12.95" font-family="Times,serif" font-size="14.00">nbiatoolkit</text>
</g>
<!-- nbiatoolkit.auth -->
<g id="node2" class="node">
<title>nbiatoolkit.auth</title>
<polygon fill="#77aadd" stroke="#77aadd" points="249.5,-252 148,-252 148,-216 249.5,-216 249.5,-252"/>
<text text-anchor="middle" x="198.75" y="-228.95" font-family="Times,serif" font-size="14.00">nbiatoolkit.auth</text>
</g>
<!-- nbiatoolkit&#45;&gt;nbiatoolkit.auth -->
<g id="edge1" class="edge">
<title>nbiatoolkit&#45;&gt;nbiatoolkit.auth</title>
<path fill="none" stroke="black" d="M376,-36.47C359.07,-45.83 338.91,-58.25 322.75,-72 276.04,-111.75 235.59,-171.75 214.43,-206.18"/>
<polygon fill="black" stroke="black" points="209.38,-214.54 210.7,-203.65 211.33,-211.3 214.55,-205.98 214.55,-205.98 214.55,-205.98 211.33,-211.3 218.4,-208.31 209.38,-214.54"/>
</g>
<!-- nbiatoolkit.logger.logger -->
<g id="node7" class="node">
<title>nbiatoolkit.logger.logger</title>
<polygon fill="#44bb99" stroke="#44bb99" points="872.88,-252 722.62,-252 722.62,-216 872.88,-216 872.88,-252"/>
<text text-anchor="middle" x="797.75" y="-228.95" font-family="Times,serif" font-size="14.00">nbiatoolkit.logger.logger</text>
</g>
<!-- nbiatoolkit&#45;&gt;nbiatoolkit.logger.logger -->
<g id="edge2" class="edge">
<title>nbiatoolkit&#45;&gt;nbiatoolkit.logger.logger</title>
<path fill="none" stroke="black" d="M442.09,-36.33C511.64,-74.79 678.83,-167.24 756.64,-210.27"/>
<polygon fill="black" stroke="black" points="765.05,-214.92 754.12,-214.02 761.74,-213.09 756.3,-210.08 756.3,-210.08 756.3,-210.08 761.74,-213.09 758.48,-206.14 765.05,-214.92"/>
</g>
<!-- nbiatoolkit.nbia -->
<g id="node8" class="node">
<title>nbiatoolkit.nbia</title>
<polygon fill="#77aadd" stroke="#77aadd" points="372.5,-180 271,-180 271,-144 372.5,-144 372.5,-180"/>
<text text-anchor="middle" x="321.75" y="-156.95" font-family="Times,serif" font-size="14.00">nbiatoolkit.nbia</text>
</g>
<!-- nbiatoolkit&#45;&gt;nbiatoolkit.nbia -->
<g id="edge3" class="edge">
<title>nbiatoolkit&#45;&gt;nbiatoolkit.nbia</title>
<path fill="none" stroke="black" d="M378.64,-36.3C364.98,-45.22 350.08,-57.34 340.75,-72 329.22,-90.13 324.58,-114.11 322.76,-132.62"/>
<polygon fill="black" stroke="black" points="322.03,-142.38 318.29,-132.07 322.31,-138.61 322.77,-132.41 322.77,-132.41 322.77,-132.41 322.31,-138.61 327.26,-132.74 322.03,-142.38"/>
</g>
<!-- nbiatoolkit.nbia_cli -->
<g id="node9" class="node">
<title>nbiatoolkit.nbia_cli</title>
<polygon fill="#77aadd" stroke="#77aadd" points="471.62,-108 349.88,-108 349.88,-72 471.62,-72 471.62,-108"/>
<text text-anchor="middle" x="410.75" y="-84.95" font-family="Times,serif" font-size="14.00">nbiatoolkit.nbia_cli</text>
</g>
<!-- nbiatoolkit&#45;&gt;nbiatoolkit.nbia_cli -->
<g id="edge4" class="edge">
<title>nbiatoolkit&#45;&gt;nbiatoolkit.nbia_cli</title>
<path fill="none" stroke="black" d="M410.75,-36.3C410.75,-43.68 410.75,-52.48 410.75,-60.75"/>
<polygon fill="black" stroke="black" points="410.75,-70.68 406.25,-60.68 410.75,-66.9 410.75,-60.68 410.75,-60.68 410.75,-60.68 410.75,-66.9 415.25,-60.68 410.75,-70.68"/>
</g>
<!-- nbiatoolkit.utils.nbia_endpoints -->
<g id="node13" class="node">
<title>nbiatoolkit.utils.nbia_endpoints</title>
<polygon fill="#bbcc33" stroke="#bbcc33" points="545.62,-468 357.88,-468 357.88,-432 545.62,-432 545.62,-468"/>
<text text-anchor="middle" x="451.75" y="-444.95" font-family="Times,serif" font-size="14.00">nbiatoolkit.utils.nbia_endpoints</text>
</g>
<!-- nbiatoolkit&#45;&gt;nbiatoolkit.utils.nbia_endpoints -->
<g id="edge5" class="edge">
<title>nbiatoolkit&#45;&gt;nbiatoolkit.utils.nbia_endpoints</title>
<path fill="none" stroke="black" d="M448.38,-32.88C451.54,-33.96 454.69,-35.02 457.75,-36 652.51,-98.61 900.75,43.58 900.75,-161 900.75,-161 900.75,-161 900.75,-307 900.75,-378.77 689.58,-418.88 556.87,-437.01"/>
<polygon fill="black" stroke="black" points="547.08,-438.32 556.4,-432.53 550.83,-437.82 556.99,-436.99 556.99,-436.99 556.99,-436.99 550.83,-437.82 557.59,-441.45 547.08,-438.32"/>
</g>
<!-- nbiatoolkit.utils -->
<g id="node10" class="node">
<title>nbiatoolkit.utils</title>
<polygon fill="#bbcc33" stroke="#bbcc33" points="268.5,-324 167,-324 167,-288 268.5,-288 268.5,-324"/>
<text text-anchor="middle" x="217.75" y="-300.95" font-family="Times,serif" font-size="14.00">nbiatoolkit.utils</text>
</g>
<!-- nbiatoolkit.auth&#45;&gt;nbiatoolkit.utils -->
<g id="edge6" class="edge">
<title>nbiatoolkit.auth&#45;&gt;nbiatoolkit.utils</title>
<path fill="none" stroke="black" d="M203.45,-252.3C205.49,-259.85 207.95,-268.88 210.24,-277.32"/>
<polygon fill="black" stroke="black" points="212.79,-286.72 205.83,-278.25 211.8,-283.07 210.17,-277.07 210.17,-277.07 210.17,-277.07 211.8,-283.07 214.51,-275.89 212.79,-286.72"/>
</g>
<!-- nbiatoolkit.dicomsort -->
<g id="node3" class="node">
<title>nbiatoolkit.dicomsort</title>
<polygon fill="#99ddff" stroke="#99ddff" points="477.25,-252 344.25,-252 344.25,-216 477.25,-216 477.25,-252"/>
<text text-anchor="middle" x="410.75" y="-228.95" font-family="Times,serif" font-size="14.00">nbiatoolkit.dicomsort</text>
</g>
<!-- nbiatoolkit.dicomsort&#45;&gt;nbiatoolkit.dicomsort -->
<g id="edge7" class="edge">
<title>nbiatoolkit.dicomsort&#45;&gt;nbiatoolkit.dicomsort</title>
<path fill="none" stroke="black" d="M477.69,-221.63C488.13,-223.48 495.25,-227.6 495.25,-234 495.25,-237.9 492.61,-240.95 488.18,-243.16"/>
<polygon fill="black" stroke="black" points="478.86,-246.02 487.1,-238.79 482.47,-244.91 488.42,-243.09 488.42,-243.09 488.42,-243.09 482.47,-244.91 489.74,-247.39 478.86,-246.02"/>
</g>
<!-- nbiatoolkit.dicomsort.helper_functions -->
<g id="node5" class="node">
<title>nbiatoolkit.dicomsort.helper_functions</title>
<polygon fill="#99ddff" stroke="#99ddff" points="647.5,-324 420,-324 420,-288 647.5,-288 647.5,-324"/>
<text text-anchor="middle" x="533.75" y="-300.95" font-family="Times,serif" font-size="14.00">nbiatoolkit.dicomsort.helper_functions</text>
</g>
<!-- nbiatoolkit.dicomsort&#45;&gt;nbiatoolkit.dicomsort.helper_functions -->
<g id="edge8" class="edge">
<title>nbiatoolkit.dicomsort&#45;&gt;nbiatoolkit.dicomsort.helper_functions</title>
<path fill="none" stroke="black" d="M441.47,-252.48C457.29,-261.49 476.78,-272.58 493.76,-282.24"/>
<polygon fill="black" stroke="black" points="502.36,-287.14 491.44,-286.1 499.08,-285.27 493.67,-282.19 493.67,-282.19 493.67,-282.19 499.08,-285.27 495.9,-278.28 502.36,-287.14"/>
</g>
<!-- nbiatoolkit.dicomsort.dicomsort -->
<g id="node4" class="node">
<title>nbiatoolkit.dicomsort.dicomsort</title>
<polygon fill="#99ddff" stroke="#99ddff" points="704.5,-252 513,-252 513,-216 704.5,-216 704.5,-252"/>
<text text-anchor="middle" x="608.75" y="-228.95" font-family="Times,serif" font-size="14.00">nbiatoolkit.dicomsort.dicomsort</text>
</g>
<!-- nbiatoolkit.dicomsort.dicomsort&#45;&gt;nbiatoolkit.dicomsort.helper_functions -->
<g id="edge9" class="edge">
<title>nbiatoolkit.dicomsort.dicomsort&#45;&gt;nbiatoolkit.dicomsort.helper_functions</title>
<path fill="none" stroke="black" d="M590.21,-252.3C581.2,-260.72 570.2,-270.98 560.31,-280.21"/>
<polygon fill="black" stroke="black" points="553.23,-286.82 557.47,-276.71 555.99,-284.24 560.54,-280 560.54,-280 560.54,-280 555.99,-284.24 563.61,-283.29 553.23,-286.82"/>
</g>
<!-- nbiatoolkit.logger -->
<g id="node6" class="node">
<title>nbiatoolkit.logger</title>
<polygon fill="#44bb99" stroke="#44bb99" points="579.12,-36 466.38,-36 466.38,0 579.12,0 579.12,-36"/>
<text text-anchor="middle" x="522.75" y="-12.95" font-family="Times,serif" font-size="14.00">nbiatoolkit.logger</text>
</g>
<!-- nbiatoolkit.logger&#45;&gt;nbiatoolkit.logger -->
<g id="edge10" class="edge">
<title>nbiatoolkit.logger&#45;&gt;nbiatoolkit.logger</title>
<path fill="none" stroke="black" d="M579.5,-5.24C589.86,-6.86 597.12,-11.11 597.12,-18 597.12,-22.2 594.43,-25.42 589.97,-27.66"/>
<polygon fill="black" stroke="black" points="580.67,-30.41 588.98,-23.26 584.29,-29.34 590.26,-27.57 590.26,-27.57 590.26,-27.57 584.29,-29.34 591.53,-31.89 580.67,-30.41"/>
</g>
<!-- nbiatoolkit.nbia&#45;&gt;nbiatoolkit.auth -->
<g id="edge11" class="edge">
<title>nbiatoolkit.nbia&#45;&gt;nbiatoolkit.auth</title>
<path fill="none" stroke="black" d="M291.03,-180.48C275.21,-189.49 255.72,-200.58 238.74,-210.24"/>
<polygon fill="black" stroke="black" points="230.14,-215.14 236.6,-206.28 233.42,-213.27 238.83,-210.19 238.83,-210.19 238.83,-210.19 233.42,-213.27 241.06,-214.1 230.14,-215.14"/>
</g>
<!-- nbiatoolkit.nbia&#45;&gt;nbiatoolkit.dicomsort -->
<g id="edge12" class="edge">
<title>nbiatoolkit.nbia&#45;&gt;nbiatoolkit.dicomsort</title>
<path fill="none" stroke="black" d="M343.75,-180.3C354.66,-188.89 368.02,-199.39 379.93,-208.76"/>
<polygon fill="black" stroke="black" points="387.74,-214.9 377.09,-212.25 384.76,-212.56 379.88,-208.72 379.88,-208.72 379.88,-208.72 384.76,-212.56 382.66,-205.18 387.74,-214.9"/>
</g>
<!-- nbiatoolkit.nbia&#45;&gt;nbiatoolkit.logger.logger -->
<g id="edge13" class="edge">
<title>nbiatoolkit.nbia&#45;&gt;nbiatoolkit.logger.logger</title>
<path fill="none" stroke="black" d="M372.97,-168.84C445.93,-177.4 584.2,-194.51 711.53,-215.68"/>
<polygon fill="black" stroke="black" points="721.04,-217.27 710.43,-220.06 717.31,-216.65 711.17,-215.62 711.17,-215.62 711.17,-215.62 717.31,-216.65 711.92,-211.18 721.04,-217.27"/>
</g>
<!-- nbiatoolkit.nbia&#45;&gt;nbiatoolkit.utils -->
<g id="edge14" class="edge">
<title>nbiatoolkit.nbia&#45;&gt;nbiatoolkit.utils</title>
<path fill="none" stroke="black" d="M309.89,-180.22C297.38,-198.26 277,-227.35 258.75,-252 252.14,-260.93 244.76,-270.57 238.1,-279.15"/>
<polygon fill="black" stroke="black" points="231.98,-286.99 234.58,-276.34 234.31,-284.01 238.13,-279.11 238.13,-279.11 238.13,-279.11 234.31,-284.01 241.68,-281.88 231.98,-286.99"/>
</g>
<!-- nbiatoolkit.utils.conv_response_list -->
<g id="node11" class="node">
<title>nbiatoolkit.utils.conv_response_list</title>
<polygon fill="#bbcc33" stroke="#bbcc33" points="556.12,-396 347.38,-396 347.38,-360 556.12,-360 556.12,-396"/>
<text text-anchor="middle" x="451.75" y="-372.95" font-family="Times,serif" font-size="14.00">nbiatoolkit.utils.conv_response_list</text>
</g>
<!-- nbiatoolkit.nbia&#45;&gt;nbiatoolkit.utils.conv_response_list -->
<g id="edge15" class="edge">
<title>nbiatoolkit.nbia&#45;&gt;nbiatoolkit.utils.conv_response_list</title>
<path fill="none" stroke="black" d="M321.53,-180.28C321.95,-198.89 324.55,-228.92 335.75,-252 355.7,-293.09 393.75,-330.06 420.82,-352.95"/>
<polygon fill="black" stroke="black" points="428.25,-359.09 417.68,-356.19 425.34,-356.68 420.55,-352.72 420.55,-352.72 420.55,-352.72 425.34,-356.68 423.42,-349.25 428.25,-359.09"/>
</g>
<!-- nbiatoolkit.nbia_cli&#45;&gt;nbiatoolkit.dicomsort -->
<g id="edge16" class="edge">
<title>nbiatoolkit.nbia_cli&#45;&gt;nbiatoolkit.dicomsort</title>
<path fill="none" stroke="black" d="M410.75,-108.41C410.75,-132.5 410.75,-176.25 410.75,-204.97"/>
<polygon fill="black" stroke="black" points="410.75,-214.67 406.25,-204.67 410.75,-210.89 410.75,-204.67 410.75,-204.67 410.75,-204.67 410.75,-210.89 415.25,-204.67 410.75,-214.67"/>
</g>
<!-- nbiatoolkit.nbia_cli&#45;&gt;nbiatoolkit.nbia -->
<g id="edge17" class="edge">
<title>nbiatoolkit.nbia_cli&#45;&gt;nbiatoolkit.nbia</title>
<path fill="none" stroke="black" d="M388.75,-108.3C377.84,-116.89 364.48,-127.39 352.57,-136.76"/>
<polygon fill="black" stroke="black" points="344.76,-142.9 349.84,-133.18 347.74,-140.56 352.62,-136.72 352.62,-136.72 352.62,-136.72 347.74,-140.56 355.41,-140.25 344.76,-142.9"/>
</g>
<!-- nbiatoolkit.utils&#45;&gt;nbiatoolkit.utils.conv_response_list -->
<g id="edge18" class="edge">
<title>nbiatoolkit.utils&#45;&gt;nbiatoolkit.utils.conv_response_list</title>
<path fill="none" stroke="black" d="M268.81,-322.28C302.23,-332.27 346.29,-345.45 382.8,-356.38"/>
<polygon fill="black" stroke="black" points="392.21,-359.19 381.34,-360.63 388.59,-358.11 382.63,-356.32 382.63,-356.32 382.63,-356.32 388.59,-358.11 383.92,-352.01 392.21,-359.19"/>
</g>
<!-- nbiatoolkit.utils.md5 -->
<g id="node12" class="node">
<title>nbiatoolkit.utils.md5</title>
<polygon fill="#bbcc33" stroke="#bbcc33" points="329.75,-396 199.75,-396 199.75,-360 329.75,-360 329.75,-396"/>
<text text-anchor="middle" x="264.75" y="-372.95" font-family="Times,serif" font-size="14.00">nbiatoolkit.utils.md5</text>
</g>
<!-- nbiatoolkit.utils&#45;&gt;nbiatoolkit.utils.md5 -->
<g id="edge19" class="edge">
<title>nbiatoolkit.utils&#45;&gt;nbiatoolkit.utils.md5</title>
<path fill="none" stroke="black" d="M229.37,-324.3C234.72,-332.27 241.18,-341.9 247.12,-350.74"/>
<polygon fill="black" stroke="black" points="252.59,-358.88 243.28,-353.09 250.48,-355.74 247.01,-350.58 247.01,-350.58 247.01,-350.58 250.48,-355.74 250.75,-348.07 252.59,-358.88"/>
</g>
<!-- nbiatoolkit.utils&#45;&gt;nbiatoolkit.utils.nbia_endpoints -->
<g id="edge20" class="edge">
<title>nbiatoolkit.utils&#45;&gt;nbiatoolkit.utils.nbia_endpoints</title>
<path fill="none" stroke="black" d="M204.04,-324.22C190.37,-343.61 173.69,-375.12 190.75,-396 210.67,-420.37 283.2,-433.81 346.76,-441.05"/>
<polygon fill="black" stroke="black" points="356.48,-442.11 346.05,-445.5 352.72,-441.7 346.54,-441.02 346.54,-441.02 346.54,-441.02 352.72,-441.7 347.03,-436.55 356.48,-442.11"/>
</g>
<!-- nbiatoolkit.utils.parsers -->
<g id="node14" class="node">
<title>nbiatoolkit.utils.parsers</title>
<polygon fill="#bbcc33" stroke="#bbcc33" points="143.5,-396 0,-396 0,-360 143.5,-360 143.5,-396"/>
<text text-anchor="middle" x="71.75" y="-372.95" font-family="Times,serif" font-size="14.00">nbiatoolkit.utils.parsers</text>
</g>
<!-- nbiatoolkit.utils&#45;&gt;nbiatoolkit.utils.parsers -->
<g id="edge21" class="edge">
<title>nbiatoolkit.utils&#45;&gt;nbiatoolkit.utils.parsers</title>
<path fill="none" stroke="black" d="M181.28,-324.48C162.14,-333.66 138.47,-345.01 118.04,-354.8"/>
<polygon fill="black" stroke="black" points="109.1,-359.09 116.17,-350.71 112.51,-357.46 118.12,-354.77 118.12,-354.77 118.12,-354.77 112.51,-357.46 120.06,-358.83 109.1,-359.09"/>
</g>
<!-- nbiatoolkit.utils.conv_response_list&#45;&gt;nbiatoolkit.utils.nbia_endpoints -->
<g id="edge22" class="edge">
<title>nbiatoolkit.utils.conv_response_list&#45;&gt;nbiatoolkit.utils.nbia_endpoints</title>
<path fill="none" stroke="black" d="M451.75,-396.3C451.75,-403.68 451.75,-412.48 451.75,-420.75"/>
<polygon fill="black" stroke="black" points="451.75,-430.68 447.25,-420.68 451.75,-426.9 451.75,-420.68 451.75,-420.68 451.75,-420.68 451.75,-426.9 456.25,-420.68 451.75,-430.68"/>
</g>
</g>
</svg>
